<svg width="373" height="800" viewBox="0 0 373 800" fill="none" xmlns="http://www.w3.org/2000/svg">
<g clip-path="url(#clip0_6_3)">
<path fill-rule="evenodd" clip-rule="evenodd" d="M-27.025 175.025C-151.287 175.025 -252.025 275.762 -252.025 400.025C-252.025 524.287 -151.287 625.025 -27.025 625.025C97.2375 625.025 197.975 524.287 197.975 400.025C197.975 275.762 97.2375 175.025 -27.025 175.025ZM110.475 412.525C103.562 412.525 97.975 406.937 97.975 400.025C97.975 330.987 42 275.025 -27.025 275.025C-33.9375 275.025 -39.525 269.437 -39.525 262.525C-39.525 255.612 -33.9375 250.025 -27.025 250.025C55.8125 250.025 122.975 317.187 122.975 400.025C122.975 406.937 117.388 412.525 110.475 412.525Z" fill="#00FF99"/>
<path fill-rule="evenodd" clip-rule="evenodd" d="M360.5 387.5H235.5C228.588 387.5 223 393.088 223 400C223 406.912 228.588 412.5 235.5 412.5H360.5C367.413 412.5 373 406.912 373 400C373 393.088 367.413 387.5 360.5 387.5Z" fill="#00FF99"/>
<path fill-rule="evenodd" clip-rule="evenodd" d="M189.5 275C192.963 280.987 200.6 283.037 206.588 279.575L314.838 217.075C320.825 213.625 322.875 205.975 319.4 200C315.963 194.012 308.313 191.975 302.338 195.437L194.088 257.937C188.1 261.4 186.063 269.012 189.5 275Z" fill="#00FF99"/>
<path fill-rule="evenodd" clip-rule="evenodd" d="M98 183.5C103.988 186.95 111.625 184.913 115.088 178.925L177.588 70.6751C181.05 64.6876 179 57.0376 173 53.5876C167.025 50.1376 159.4 52.1876 155.938 58.1626L93.4501 166.425C89.9751 172.413 92.025 180.038 98 183.5Z" fill="#00FF99"/>
<path fill-rule="evenodd" clip-rule="evenodd" d="M53.025 650.313C51.2625 643.663 44.4125 639.688 37.7125 641.475C31.05 643.263 27.1125 650.125 28.875 656.788L41.8125 705.075C43.6125 711.763 50.475 715.7 57.15 713.913C63.825 712.125 67.7625 705.3 65.9625 698.6L53.025 650.313Z" fill="#00FF99"/>
<path fill-rule="evenodd" clip-rule="evenodd" d="M167.475 576.775C162.625 571.9 154.7 571.9 149.8 576.775C144.913 581.65 144.95 589.575 149.8 594.45L185.15 629.8C190.05 634.7 197.963 634.662 202.838 629.787C207.725 624.912 207.725 617.025 202.825 612.125L167.475 576.775Z" fill="#00FF99"/>
<path fill-rule="evenodd" clip-rule="evenodd" d="M223.338 480L271.625 492.938C278.313 494.75 285.15 490.738 286.938 484.075C288.738 477.425 284.788 470.588 278.1 468.788L229.813 455.85C223.175 454.038 216.3 458.013 214.5 464.688C212.7 471.363 216.7 478.2 223.338 480Z" fill="#00FF99"/>
<path fill-rule="evenodd" clip-rule="evenodd" d="M229.813 344.113L278.1 331.175C284.788 329.388 288.725 322.513 286.925 315.838C285.15 309.2 278.325 305.238 271.625 307.025L223.338 319.963C216.675 321.725 212.713 328.6 214.5 335.275C216.263 341.95 223.15 345.875 229.813 344.113Z" fill="#00FF99"/>
<path fill-rule="evenodd" clip-rule="evenodd" d="M149.8 223.2C154.663 228.1 162.575 228.05 167.475 223.2L202.825 187.85C207.725 182.95 207.7 175.05 202.8 170.163C197.95 165.288 190.038 165.275 185.15 170.175L149.8 205.525C144.9 210.375 144.925 218.325 149.8 223.2Z" fill="#00FF99"/>
<path fill-rule="evenodd" clip-rule="evenodd" d="M37.725 158.5C44.3625 160.313 51.2 156.3 53.0375 149.663L65.975 101.375C67.7625 94.6876 63.775 87.8376 57.1125 86.0626C50.475 84.2626 43.6125 88.2126 41.825 94.9001L28.8875 143.188C27.05 149.825 31.0625 156.7 37.725 158.5Z" fill="#00FF99"/>
<path fill-rule="evenodd" clip-rule="evenodd" d="M115.037 621.087C111.6 615.112 104 613.037 98 616.525C92.0125 619.95 89.9875 627.587 93.4125 633.575L155.963 741.837C159.4 747.812 167 749.887 173 746.412C178.988 742.95 181.025 735.3 177.588 729.325L115.037 621.087Z" fill="#00FF99"/>
<path fill-rule="evenodd" clip-rule="evenodd" d="M314.85 582.913L206.563 520.45C200.588 517 192.975 519 189.525 525.025C186.05 530.988 188.125 538.6 194.075 542.075L302.375 604.563C308.338 608 315.95 606 319.413 600C322.85 594.013 320.8 586.375 314.85 582.913Z" fill="#00FF99"/>
</g>
<defs>
<clipPath id="clip0_6_3">
<rect width="800" height="800" fill="white" transform="translate(-427)"/>
</clipPath>
</defs>
</svg>
