<svg width="806" height="1677" viewBox="0 0 806 1677" fill="none" xmlns="http://www.w3.org/2000/svg">
<g clip-path="url(#clip0_6_64)">
<path d="M805 324C748.272 324.098 691.952 333.601 638.332 352.122C636.106 352.696 633.945 353.495 631.882 354.509C510.682 398.213 410.285 485.794 350.536 599.941C290.786 714.089 276.031 846.497 309.185 970.998C342.34 1095.5 420.993 1203.03 529.598 1272.35C638.204 1341.66 768.861 1367.71 895.745 1345.35C1022.63 1322.99 1136.51 1253.84 1214.88 1151.58C1293.25 1049.32 1330.4 921.373 1319 793.039C1307.6 664.705 1248.47 545.317 1153.3 458.471C1058.13 371.625 933.839 323.64 805 324ZM353.5 840C353.604 748.992 381.207 660.14 432.692 585.094C484.176 510.049 557.138 452.314 642.008 419.46L728.696 490.797C732.381 493.818 735.35 497.617 737.391 501.922C739.432 506.226 740.494 510.93 740.5 515.694V604.962C728.565 597.759 715.202 593.248 701.343 591.744C687.484 590.24 673.464 591.78 660.262 596.255L548.612 633.6C529.377 640.022 512.646 652.325 500.783 668.771C488.92 685.218 482.524 704.976 482.5 725.255V757.505C482.506 779.086 489.727 800.046 503.016 817.051C516.304 834.056 534.897 846.129 555.836 851.352L676 881.345C681.038 882.557 685.711 884.966 689.621 888.368C693.531 891.769 696.563 896.063 698.462 900.885C700.36 905.707 701.068 910.916 700.527 916.07C699.985 921.224 698.209 926.171 695.35 930.494L627.947 1031.63C617.295 1047.43 611.57 1066.04 611.5 1085.1V1247.12C534.428 1210.57 469.29 1152.92 423.629 1080.87C377.968 1008.82 353.653 925.303 353.5 840ZM673.485 1271.83C675.147 1267.84 676.002 1263.57 676 1259.25V1085.1C675.992 1078.72 677.878 1072.48 681.418 1067.17L748.82 966.098C757.417 953.195 762.786 938.415 764.477 923.003C766.167 907.591 764.128 891.998 758.533 877.539C752.938 863.079 743.949 850.176 732.325 839.917C720.7 829.657 706.781 822.341 691.738 818.586L571.445 788.4C564.508 786.67 558.342 782.684 553.918 777.068C549.493 771.452 547.059 764.525 547 757.376V725.126C546.992 718.349 549.118 711.741 553.078 706.242C557.038 700.742 562.629 696.63 569.059 694.488L680.644 657.336C686.33 655.439 692.432 655.165 698.266 656.544C704.099 657.922 709.432 660.899 713.668 665.141L749.917 701.454C754.42 705.968 760.159 709.046 766.411 710.3C772.662 711.553 779.145 710.925 785.04 708.495C790.935 706.066 795.977 701.943 799.529 696.649C803.082 691.354 804.986 685.126 805 678.75V515.694C804.997 501.412 801.831 487.308 795.731 474.394C789.631 461.48 780.748 450.077 769.718 441.003L716.635 397.337C804.693 379.628 896.036 388.672 978.912 423.305C1061.79 457.938 1132.41 516.576 1181.68 591.675L1007.53 635.277C986.554 640.463 967.918 652.521 954.592 669.529C941.266 686.538 934.017 707.517 934 729.125V767.825C933.927 785.809 938.899 803.453 948.351 818.754C957.803 834.055 971.356 846.399 987.47 854.384L1034.56 877.862C1041.12 881.149 1046.37 886.578 1049.43 893.251C1052.49 899.924 1053.18 907.442 1051.39 914.562L1008.37 1086.91C1004.31 1103.12 1004.51 1120.1 1008.96 1136.21C1013.42 1152.32 1021.97 1167 1033.78 1178.82L1064.1 1209.13C1008.09 1248.7 943.766 1274.92 876.058 1285.77C808.349 1296.63 739.054 1291.9 673.485 1271.83ZM1114.21 1168.11L1079.38 1133.28C1075.45 1129.34 1072.6 1124.44 1071.12 1119.08C1069.64 1113.71 1069.58 1108.05 1070.93 1102.64L1114.02 930.3C1119.45 908.943 1117.38 886.37 1108.16 866.354C1098.95 846.338 1083.14 830.091 1063.39 820.328L1016.3 796.785C1010.94 794.099 1006.44 789.973 1003.29 784.868C1000.15 779.764 998.488 773.884 998.5 767.889V729.189C998.488 721.984 1000.89 714.983 1005.32 709.301C1009.75 703.62 1015.95 699.586 1022.95 697.842L1213.99 650.112C1254.3 735.919 1266.35 832.295 1248.42 925.383C1230.49 1018.47 1183.5 1103.48 1114.21 1168.18V1168.11Z" fill="#00FF99"/>
</g>
<circle cx="838.5" cy="838.5" r="838.5" fill="#00FF99" fill-opacity="0.25"/>
<defs>
<clipPath id="clip0_6_64">
<rect width="1032" height="1032" fill="white" transform="translate(289 324)"/>
</clipPath>
</defs>
</svg>
